<?xml version="1.0" encoding="UTF-8" standalone="no"?>
<!DOCTYPE svg PUBLIC "-//W3C//DTD SVG 1.1//EN" "http://www.w3.org/Graphics/SVG/1.1/DTD/svg11.dtd">
<svg width="384.00" height="528.00" viewBox="0.00 0.00 1600.00 2200.00" xmlns="http://www.w3.org/2000/svg" xmlns:xlink="http://www.w3.org/1999/xlink">
<g stroke-linecap="round" transform="translate(27.00, -972.00)" id="레이어_3">
<path d="M791.39,2717.01 C791.34,2716.31 791.29,2715.60 791.23,2714.89 C790.86,2710.10 790.17,2706.25 789.37,2704.05 C789.37,2704.05 741.87,2706.78 741.87,2706.78 C736.81,2710.94 719.21,2725.45 716.49,2728.01 C713.09,2731.26 708.41,2737.08 707.02,2739.82 C706.38,2741.13 705.47,2744.26 705.41,2745.56 C705.39,2746.99 706.50,2749.68 707.57,2750.81 C708.70,2751.92 712.10,2753.84 714.04,2754.47 C715.95,2755.05 719.69,2755.27 721.54,2754.91 C723.37,2754.52 727.54,2752.51 728.74,2751.46 C729.94,2750.36 737.27,2736.86 740.96,2728.94 C744.31,2721.35 751.38,2703.80 755.08,2693.89 C759.53,2681.05 763.92,2666.22 765.55,2658.54 C767.16,2650.89 768.47,2637.01 767.89,2630.65 C767.48,2626.42 765.05,2619.24 763.13,2616.59 C761.17,2613.98 755.87,2610.53 752.37,2609.59 C749.06,2608.76 741.57,2608.32 737.66,2608.75 C733.74,2609.21 725.30,2611.43 721.06,2613.13 C714.26,2615.87 701.09,2623.42 694.40,2628.17 C687.70,2632.95 675.89,2642.82 666.26,2651.64 C657.64,2659.97 648.34,2669.84 644.08,2675.16 C639.03,2681.52 633.63,2691.09 632.30,2695.57 C631.62,2697.95 631.13,2702.35 631.31,2704.34 C631.68,2707.63 635.72,2714.88 637.59,2717.35 C639.39,2719.69 643.95,2723.92 646.74,2725.03 C649.67,2726.14 656.06,2726.18 659.21,2725.10 C662.52,2723.89 670.17,2718.26 673.41,2714.62 C674.52,2713.36 683.30,2699.43 686.92,2693.23 C690.70,2686.47 698.74,2671.27 702.94,2662.91 C707.61,2652.99 713.69,2638.58 716.30,2630.95 C718.88,2623.33 722.86,2607.74 723.91,2599.75 C725.06,2590.77 724.81,2574.06 723.40,2566.37 C722.24,2560.19 717.35,2544.47 714.66,2537.90 C712.08,2531.67 705.51,2519.20 700.41,2512.35 C695.63,2505.98 685.12,2495.43 678.45,2490.20 C672.41,2485.50 658.84,2476.93 653.89,2474.69 C648.03,2472.07 632.25,2467.74 624.90,2466.73 C617.52,2465.74 602.43,2465.78 594.45,2466.81 C581.70,2468.48 555.28,2477.75 549.96,2480.44 C546.43,2482.24 540.00,2486.56 537.14,2489.05 C534.29,2491.56 529.11,2497.47 527.14,2500.44 C525.20,2503.40 521.55,2510.86 520.13,2514.77 C517.32,2522.65 515.30,2535.30 513.86,2550.03 C513.16,2557.03 512.10,2567.70 511.73,2571.38 C511.73,2571.38 513.75,2571.72 513.75,2571.72 C517.28,2568.97 529.62,2559.34 531.57,2556.75 C534.06,2553.35 537.96,2543.45 539.16,2537.50 C540.67,2529.80 541.77,2514.09 541.76,2506.02 C541.70,2499.44 540.31,2475.04 539.69,2469.25 C538.63,2459.37 534.70,2443.16 531.87,2436.92 C530.44,2433.82 527.15,2428.53 525.29,2426.34 C523.32,2424.08 518.58,2420.26 515.74,2418.91 C512.76,2417.52 506.13,2416.21 502.47,2416.27 C498.79,2416.37 490.74,2418.03 486.39,2419.58 C478.54,2422.42 460.74,2432.32 454.52,2437.19 C451.44,2439.62 446.32,2444.57 444.03,2447.31 C441.62,2450.26 437.47,2457.33 436.11,2461.34 C434.82,2465.25 433.94,2473.43 434.36,2477.64 C434.97,2483.30 440.65,2501.79 443.19,2507.50 C444.67,2510.76 449.64,2519.30 452.65,2521.95 C455.37,2524.29 460.51,2525.60 465.66,2526.91 C466.28,2527.07 466.90,2527.23 467.52,2527.39 C465.41,2515.24 458.58,2475.72 456.69,2465.72 C454.14,2453.83 450.69,2440.67 448.47,2434.34 C447.70,2432.18 444.66,2424.70 442.55,2420.93 C440.13,2416.68 434.55,2411.01 431.65,2409.85 C429.21,2408.94 422.40,2409.43 419.27,2410.04 C412.79,2411.36 399.03,2417.20 391.82,2421.53 C384.11,2426.19 370.14,2436.96 365.34,2442.24 C362.43,2445.51 358.03,2452.38 356.64,2456.80 C355.40,2460.93 355.87,2470.38 356.04,2473.00 C356.13,2474.36 356.29,2476.77 356.36,2477.82 C354.20,2473.00 349.00,2461.38 345.96,2454.58 C339.27,2439.55 334.02,2428.58 329.45,2421.58 C327.18,2418.16 322.51,2412.25 320.09,2409.76 C317.36,2406.99 311.96,2402.82 308.60,2401.15 C305.24,2399.51 298.26,2397.86 294.65,2397.84 C291.00,2397.86 284.38,2399.32 279.75,2400.84 C272.22,2403.35 257.84,2410.32 250.99,2414.69 C244.85,2418.64 233.10,2427.85 227.14,2433.38 C223.65,2436.63 218.74,2441.91 216.32,2445.11 C213.95,2448.28 209.91,2455.04 208.23,2458.65 C206.59,2462.22 203.96,2469.85 203.05,2473.85 C201.29,2481.81 200.24,2498.95 200.95,2508.28 C201.21,2511.61 205.43,2546.18 206.04,2551.26 C202.08,2547.47 192.10,2537.88 186.08,2532.09 C182.23,2528.47 175.45,2523.34 171.88,2521.34 C168.32,2519.37 160.92,2516.75 157.54,2516.24 C154.18,2515.78 146.84,2516.29 143.27,2517.26 C139.69,2518.26 132.69,2521.61 128.94,2524.12 C122.01,2528.79 109.92,2539.80 105.24,2545.69 C100.59,2551.59 93.68,2564.58 91.60,2571.30 C90.52,2574.90 89.50,2582.18 89.51,2586.13 C89.56,2590.10 90.72,2598.52 91.85,2602.99 C93.51,2609.41 99.85,2624.73 104.17,2632.72 C106.85,2637.67 125.47,2668.14 128.99,2673.92 C116.78,2677.97 94.71,2685.24 88.14,2689.00 C84.44,2691.14 77.85,2696.18 74.93,2699.10 C72.15,2701.93 68.10,2707.77 66.57,2710.55 C63.30,2716.59 59.16,2730.39 58.02,2739.02 C56.96,2747.21 55.95,2762.79 55.86,2772.53 C55.91,2780.78 56.86,2795.02 57.55,2802.03 C58.41,2809.11 61.22,2827.01 62.03,2830.84 C63.59,2838.16 69.01,2853.10 72.85,2860.66 C76.70,2868.17 85.59,2881.80 91.18,2888.82 C95.43,2894.14 106.21,2906.06 113.58,2913.54 C120.08,2919.81 134.17,2932.44 141.43,2938.55 C148.36,2944.16 163.33,2955.36 167.30,2958.00 C173.13,2961.85 184.98,2968.37 190.92,2970.46 C195.62,2972.08 204.02,2973.02 207.35,2972.30 C210.71,2971.51 215.66,2967.44 218.13,2965.28 C223.27,2961.17 236.98,2954.61 244.85,2952.24 C252.99,2949.82 273.68,2946.97 281.14,2947.27 C284.88,2947.45 290.12,2948.74 291.87,2949.92 C292.74,2950.55 293.81,2952.14 293.98,2953.20 C294.12,2954.30 293.43,2957.08 292.64,2958.68 C290.49,2962.81 274.82,2980.01 269.74,2985.60 C269.74,2985.60 259.67,2987.82 259.67,2987.82 C258.09,2988.60 254.51,2989.44 252.69,2989.23 C252.43,2989.20 236.29,2980.02 229.66,2976.14 C216.85,2968.44 205.63,2960.72 199.78,2954.89 C196.88,2951.99 192.13,2946.01 190.19,2942.85 C188.20,2939.55 185.15,2932.30 184.23,2928.35 C183.37,2924.45 182.98,2916.39 183.45,2912.22 C183.95,2908.19 186.25,2899.63 187.72,2895.71 C189.12,2892.02 192.36,2885.80 194.19,2883.28 C195.92,2880.94 200.50,2876.63 203.54,2875.00 C205.20,2874.14 209.01,2872.99 210.98,2872.74 C215.04,2872.30 223.04,2873.90 228.35,2875.92 C232.59,2877.55 238.13,2880.51 240.55,2882.42 C241.62,2883.32 243.67,2886.09 244.12,2887.49 C244.58,2889.12 243.36,2892.55 241.84,2894.30 C240.32,2895.93 237.09,2897.64 235.54,2897.52 C233.73,2897.32 231.99,2896.10 231.17,2894.62 C227.43,2887.32 223.25,2876.35 220.68,2867.18 C219.25,2862.00 217.86,2853.14 217.79,2848.88 C217.76,2844.65 219.03,2836.78 220.31,2833.23 C221.61,2829.71 225.28,2823.46 227.70,2820.65 C230.16,2817.85 236.26,2812.84 239.91,2810.63 C243.58,2808.43 252.36,2804.51 256.49,2803.25 C260.66,2802.00 268.38,2801.00 271.91,2801.24 C275.43,2801.52 281.75,2803.55 284.68,2805.34 C287.41,2807.05 292.26,2811.79 294.40,2814.84 C296.52,2817.93 300.17,2825.45 301.71,2829.88 C303.26,2834.44 311.81,2870.32 313.11,2875.76 C310.58,2870.65 300.84,2850.89 300.30,2849.69 C298.34,2845.27 296.17,2836.47 295.99,2832.21 C295.85,2827.85 297.32,2819.95 298.65,2816.46 C299.95,2813.19 303.49,2807.07 305.84,2804.04 C308.22,2801.00 314.06,2795.10 317.57,2792.18 C321.44,2789.00 328.38,2784.74 331.96,2783.39 C335.52,2782.08 342.54,2781.18 346.01,2781.59 C349.25,2782.01 355.73,2784.40 358.54,2786.03 C361.35,2787.69 366.90,2792.16 369.65,2794.98 C375.16,2800.69 385.10,2815.56 390.64,2825.75 C395.06,2833.89 400.65,2846.82 402.61,2853.40 C403.19,2855.34 403.58,2858.54 403.52,2861.31 C403.44,2863.68 402.45,2868.16 401.60,2870.09 C400.71,2872.03 398.29,2875.22 396.69,2876.70 C395.32,2877.92 392.99,2879.14 392.01,2879.16 C390.99,2879.13 389.66,2877.96 388.90,2876.62 C388.05,2875.03 387.04,2869.90 386.88,2866.33 C386.75,2863.00 387.20,2851.83 387.88,2848.44 C388.33,2846.28 389.86,2842.37 390.88,2840.75 C391.93,2839.17 394.57,2836.62 396.15,2835.65 C399.00,2833.98 405.99,2832.75 409.05,2832.77 C414.84,2832.89 429.48,2836.63 438.34,2840.26 C456.55,2847.79 478.98,2861.64 483.83,2865.58 C487.36,2868.58 492.47,2874.13 494.02,2877.89 C494.82,2879.94 495.24,2884.03 494.83,2885.88 C494.32,2888.00 487.02,2901.05 485.91,2903.05 C513.60,2908.24 522.86,2910.18 530.00,2913.39 C533.44,2914.96 539.74,2919.01 542.46,2921.56 C545.29,2924.27 549.36,2930.83 550.52,2934.55 C551.70,2938.53 551.88,2946.15 550.77,2949.90 C549.57,2953.73 545.15,2960.34 542.45,2963.11 C539.94,2965.62 534.21,2970.13 530.69,2972.36 C523.41,2976.93 505.31,2984.74 498.11,2986.16 C494.53,2986.83 488.07,2986.97 485.53,2986.44 C483.46,2985.97 480.32,2984.74 478.81,2983.73 C477.38,2982.74 474.97,2980.17 473.99,2978.60 C472.17,2975.57 470.13,2967.07 469.71,2962.79 C469.36,2958.94 469.91,2951.93 470.75,2949.43 C471.95,2946.01 476.25,2940.70 479.34,2938.82 C482.69,2936.85 490.08,2935.24 494.16,2935.71 C497.57,2936.14 505.40,2939.09 508.03,2940.44 C510.81,2941.90 516.56,2945.69 519.53,2948.02 C522.59,2950.44 529.85,2957.10 531.86,2958.79 C538.27,2964.14 552.20,2972.49 560.02,2975.74 C567.33,2978.74 583.16,2982.70 591.59,2983.63 C600.04,2984.53 614.42,2983.77 620.83,2982.08 C624.45,2981.09 631.97,2977.67 635.51,2975.00 C639.01,2972.30 643.29,2967.13 646.72,2961.98 C650.24,2956.73 654.34,2950.63 654.92,2949.77 C666.95,2957.83 689.87,2973.17 695.93,2976.24 C699.88,2978.23 707.13,2980.92 710.43,2981.62 C714.01,2982.34 721.37,2982.27 724.82,2980.97 C726.65,2980.24 729.97,2978.07 731.45,2976.64 C734.44,2973.65 743.20,2956.13 745.86,2950.80 C750.91,2952.87 763.50,2958.07 771.06,2961.19 C781.52,2965.48 796.69,2970.46 804.35,2972.09 C808.60,2972.98 817.75,2974.10 822.31,2974.11 C826.75,2974.08 834.47,2972.90 838.20,2971.72 C841.73,2970.57 847.82,2967.45 850.56,2965.39 C853.39,2963.21 858.44,2957.38 860.47,2953.65 C862.48,2949.88 868.73,2929.89 868.64,2929.31 C869.22,2930.96 871.32,2934.49 872.81,2935.96 C873.17,2936.31 897.12,2947.21 900.44,2948.50 C904.94,2950.23 913.49,2952.04 917.43,2952.10 C921.35,2952.12 928.59,2950.48 931.90,2948.82 C935.19,2947.12 941.17,2942.04 943.85,2938.67 C948.52,2932.67 961.86,2904.43 961.87,2904.41 C961.95,2903.31 961.03,2901.21 960.35,2900.32 C961.29,2900.26 999.98,2907.15 1004.71,2907.56 C1009.33,2907.94 1017.45,2907.66 1020.94,2906.99 C1024.36,2906.30 1030.28,2903.83 1032.56,2901.99 C1034.87,2900.08 1038.15,2895.09 1039.14,2892.00 C1040.09,2888.87 1040.66,2881.66 1040.32,2877.18 C1039.98,2872.96 1038.42,2864.42 1037.20,2860.04 C1034.72,2851.31 1027.80,2836.54 1023.75,2829.79 C1019.96,2823.52 1010.74,2810.74 1005.27,2804.16 C999.49,2797.24 987.80,2785.99 981.36,2781.16 C974.96,2776.38 960.78,2768.38 952.70,2765.21 C944.63,2762.08 927.52,2757.99 918.50,2757.05 C909.34,2756.11 893.60,2756.63 887.19,2758.07 C884.00,2758.81 877.96,2761.01 875.84,2762.19 C871.91,2764.44 866.16,2769.86 864.03,2773.30 C861.93,2776.79 859.54,2784.62 858.96,2789.75 C858.49,2794.28 858.60,2801.98 859.18,2805.27 C859.75,2808.31 862.26,2814.32 864.64,2816.98 C865.93,2818.38 869.30,2820.62 871.21,2821.38 C874.86,2822.75 884.44,2822.98 888.93,2822.48 C892.64,2822.03 898.98,2819.95 901.12,2818.06 C902.24,2817.02 903.41,2814.25 903.43,2812.65 C903.38,2810.91 902.15,2807.61 900.91,2806.03 C898.34,2802.89 893.02,2800.09 888.14,2798.31 C876.53,2794.36 843.26,2785.36 823.11,2780.50 C805.73,2776.39 776.77,2769.54 765.19,2766.80 C764.07,2772.61 761.94,2783.68 762.09,2786.75 C762.35,2790.81 765.54,2797.85 768.10,2800.79 C773.08,2806.31 782.63,2811.29 796.49,2817.92 C797.79,2818.54 800.14,2819.67 801.19,2820.17 C799.31,2815.59 794.58,2804.02 791.73,2797.02 C789.85,2792.59 785.48,2785.38 782.61,2781.94 C779.70,2778.51 772.91,2772.48 768.60,2769.53 C763.17,2765.84 749.24,2759.43 741.25,2756.93 C732.65,2754.28 715.24,2750.97 707.23,2751.01 C703.25,2751.05 695.75,2751.98 692.22,2752.87 C688.75,2753.78 682.04,2756.51 678.80,2758.41 C675.51,2760.37 669.39,2765.38 666.62,2768.38 C663.87,2771.42 658.89,2778.52 656.69,2782.56 C652.91,2789.58 646.21,2807.62 644.78,2814.32 C644.09,2817.65 643.43,2824.22 643.55,2826.31 C643.75,2829.11 644.57,2833.29 645.43,2835.34 C646.27,2837.26 648.65,2840.51 650.15,2841.80 C652.54,2843.77 668.05,2849.83 671.59,2851.21 C668.49,2846.41 658.29,2830.56 655.19,2827.11 C652.12,2823.74 645.15,2818.28 640.90,2815.91 C637.84,2814.24 630.75,2811.48 626.98,2810.50 C623.21,2809.55 614.27,2808.27 610.66,2808.19 C606.47,2808.14 598.65,2809.82 595.09,2811.54 C591.45,2813.35 585.43,2818.36 583.10,2821.11 C580.95,2823.69 577.32,2829.27 575.62,2832.58 C572.26,2839.25 566.56,2857.43 565.54,2865.32 C565.01,2869.53 564.99,2877.37 565.49,2881.01 C566.02,2884.63 568.13,2891.38 569.65,2894.35 C571.34,2897.55 575.84,2903.34 578.64,2905.90 C581.48,2908.44 588.26,2912.89 592.21,2914.78 C599.45,2918.21 618.05,2923.20 625.53,2923.87 C629.25,2924.18 636.43,2923.99 639.38,2923.51 C644.28,2922.68 652.15,2919.66 655.66,2917.29 C659.23,2914.81 664.04,2909.46 667.39,2904.68 C672.57,2897.17 677.53,2888.50 677.65,2888.04 C678.25,2885.76 678.28,2881.60 677.71,2879.67 C677.66,2879.50 676.51,2876.53 676.14,2875.42 C672.11,2876.12 666.52,2876.96 664.53,2878.12 C662.80,2879.16 659.52,2883.19 658.33,2885.48 C657.47,2887.20 655.10,2900.88 654.21,2909.23 C653.86,2913.24 653.09,2923.06 653.16,2925.92 C653.29,2930.10 655.18,2938.22 656.91,2941.96 C658.67,2945.69 663.77,2952.60 667.10,2955.79 C672.33,2960.72 684.49,2967.84 690.47,2970.46 C696.47,2973.08 710.35,2977.68 718.23,2979.66 C725.10,2981.38 744.03,2984.87 753.39,2986.26 C762.57,2987.41 780.30,2988.96 788.86,2989.36 C797.27,2989.57 813.40,2989.18 821.04,2988.47 C828.81,2987.74 845.38,2984.96 853.68,2982.75 C861.87,2980.54 877.11,2974.73 884.14,2971.11 C890.80,2967.67 904.07,2958.92 910.51,2954.89 C916.96,2951.05 929.85,2943.99 936.29,2940.76 C942.73,2937.74 959.47,2930.68 964.72,2928.81 C972.95,2925.90 989.50,2921.39 997.81,2919.80 C1004.49,2918.53 1024.82,2916.18 1029.83,2915.87 C1037.21,2915.43 1049.72,2915.58 1056.60,2916.18 C1062.35,2916.70 1069.73,2917.84 1073.61,2918.79 C1081.41,2920.76 1094.94,2927.86 1100.47,2930.14 C1107.59,2933.07 1125.09,2937.99 1129.53,2938.95 C1136.51,2940.44 1153.98,2942.87 1160.38,2943.22 C1164.49,2943.43 1172.55,2942.77 1176.42,2941.90 C1180.29,2941.01 1187.73,2938.16 1191.31,2936.19 C1194.90,2934.20 1200.74,2929.91 1203.64,2927.29 C1208.86,2922.50 1218.66,2910.09 1223.24,2902.47 C1227.73,2894.94 1235.99,2877.41 1238.64,2869.87 C1241.27,2862.35 1243.98,2848.52 1243.80,2843.54 C1243.56,2838.00 1241.05,2829.43 1238.64,2825.81 C1236.12,2822.12 1230.58,2817.86 1224.82,2814.59 C1218.63,2811.06 1210.40,2806.35 1208.35,2805.17 C1208.35,2805.17 1206.91,2805.22 1206.91,2805.22 C1206.91,2805.22 1169.50,2826.43 1169.50,2826.43 C1169.50,2826.43 1125.63,2838.48 1125.63,2838.48 C1110.63,2839.16 1104.90,2839.27 1101.75,2838.16 C1100.00,2837.51 1097.65,2835.57 1096.80,2834.19 C1095.70,2832.24 1095.91,2826.09 1097.24,2822.29 C1098.44,2818.92 1103.00,2809.93 1105.04,2806.65 C1107.07,2803.43 1112.08,2797.15 1114.42,2795.13 C1115.58,2794.16 1118.50,2792.25 1119.58,2791.82 C1121.05,2791.29 1124.04,2791.31 1125.96,2791.91 C1129.36,2793.02 1136.46,2797.91 1139.52,2800.51 C1144.58,2804.88 1159.25,2820.53 1162.81,2825.74 C1165.32,2829.47 1168.43,2836.76 1169.01,2840.28 C1169.55,2843.86 1168.67,2850.36 1167.51,2853.25 C1166.37,2855.98 1162.98,2861.05 1160.63,2863.54 C1158.24,2866.02 1152.21,2870.81 1148.57,2873.11 C1141.73,2877.40 1124.22,2885.35 1116.16,2887.87 C1108.01,2890.39 1090.84,2893.15 1081.89,2893.03 C1077.36,2892.95 1068.39,2891.98 1064.02,2891.10 C1059.78,2890.22 1051.43,2887.77 1048.20,2886.48 C1045.00,2885.18 1040.09,2882.32 1038.39,2880.76 C1036.56,2879.02 1034.31,2874.37 1034.77,2871.46 C1035.07,2869.87 1036.66,2866.52 1037.93,2864.80 C1039.99,2862.10 1055.70,2848.13 1059.29,2844.94 C1053.63,2844.08 1031.63,2840.79 1030.51,2840.59 C1025.78,2839.72 1017.60,2836.81 1014.24,2834.82 C1010.91,2832.80 1005.76,2827.74 1004.14,2824.93 C1002.57,2822.08 1000.67,2815.86 1000.28,2812.27 C999.93,2808.65 1000.36,2800.85 1001.17,2796.16 C1002.70,2787.48 1008.22,2771.50 1012.30,2763.94 C1015.70,2757.69 1024.50,2745.81 1029.78,2740.34 C1032.67,2737.37 1038.34,2732.26 1041.45,2730.07 C1044.72,2727.80 1052.01,2723.90 1056.03,2722.29 C1064.06,2719.11 1080.47,2715.90 1088.88,2715.24 C1104.94,2714.03 1127.60,2716.03 1159.32,2719.61 C1165.60,2720.32 1175.46,2721.42 1179.03,2721.82 C1176.80,2716.08 1168.13,2693.88 1167.68,2692.62 C1165.99,2687.80 1164.50,2679.06 1164.72,2675.27 C1164.99,2671.46 1167.40,2665.21 1169.38,2662.72 C1171.34,2660.33 1176.63,2656.50 1180.04,2654.99 C1183.51,2653.50 1191.53,2651.48 1196.78,2650.75 C1206.22,2649.48 1223.09,2649.72 1230.19,2651.22 C1235.16,2652.30 1243.58,2655.41 1247.45,2657.59 C1252.30,2660.37 1270.74,2676.81 1271.50,2677.48 C1272.11,2672.01 1273.33,2660.72 1274.04,2658.48 C1274.66,2656.61 1276.84,2652.97 1278.30,2651.35 C1281.06,2648.39 1287.80,2644.52 1291.33,2643.15 C1297.26,2640.91 1314.03,2637.72 1322.43,2637.26 C1327.00,2637.03 1335.44,2637.82 1339.24,2638.83 C1343.02,2639.88 1349.87,2643.27 1352.76,2645.51 C1355.51,2647.69 1360.25,2652.72 1362.24,2655.59 C1364.22,2658.49 1367.58,2665.17 1368.97,2668.97 C1371.57,2676.18 1375.15,2696.55 1376.88,2703.67 C1378.89,2711.82 1384.05,2726.47 1387.34,2732.59 C1389.48,2736.53 1394.51,2743.06 1397.24,2745.43 C1400.04,2747.81 1406.01,2750.74 1409.21,2751.12 C1412.48,2751.45 1419.65,2749.89 1423.36,2748.04 C1428.20,2745.59 1437.74,2736.95 1442.32,2731.74 C1446.91,2726.49 1458.30,2711.02 1461.54,2705.61 C1465.98,2698.14 1472.47,2682.43 1474.52,2674.20 C1476.61,2665.66 1477.81,2650.75 1477.67,2643.71 C1477.50,2636.38 1475.66,2621.20 1473.99,2613.35 C1472.54,2606.60 1467.41,2589.40 1464.78,2581.49 C1461.98,2573.68 1455.86,2558.36 1452.56,2550.85 C1447.68,2540.44 1443.39,2532.19 1437.97,2522.64 C1434.01,2516.01 1425.65,2502.97 1421.25,2496.55 C1416.69,2490.20 1403.44,2472.99 1402.30,2471.47 C1397.58,2465.11 1389.62,2453.14 1384.62,2444.88 C1376.01,2429.70 1363.34,2402.26 1357.75,2387.96 C1355.07,2380.68 1350.08,2365.70 1347.75,2358.00 C1345.55,2350.16 1341.43,2334.16 1339.26,2326.25 C1336.96,2318.49 1331.97,2303.37 1329.27,2296.02 C1326.43,2288.80 1320.36,2274.78 1317.12,2267.98 C1314.94,2263.53 1306.16,2247.87 1302.17,2241.41 C1298.04,2235.09 1289.30,2222.86 1284.70,2216.95 C1279.95,2211.19 1269.91,2199.84 1264.52,2194.64 C1258.94,2189.28 1247.32,2179.59 1239.67,2173.91 C1232.74,2168.94 1214.84,2157.54 1209.73,2154.65 C1205.90,2152.48 1188.64,2143.66 1181.16,2140.11 C1173.45,2136.61 1157.35,2129.77 1148.97,2126.44 C1126.58,2118.08 1036.30,2088.12 1031.35,2086.97 C1026.50,2085.78 1021.46,2085.03 1016.96,2085.03 C1001.55,2085.09 1000.41,2085.37 999.41,2086.09 C1000.35,2096.72 1000.96,2103.39 1001.50,2109.42 C1002.03,2113.82 1002.97,2121.42 1003.36,2124.62 C1003.36,2124.62 1004.69,2133.45 1004.69,2133.45 C1007.71,2147.78 1014.50,2180.16 1018.27,2198.22 C1019.98,2206.58 1020.56,2215.13 1024.27,2221.39 C1025.42,2223.29 1030.49,2229.49 1030.97,2229.46 C1031.10,2229.44 1031.78,2229.33 1032.99,2229.12 C1033.43,2228.34 1033.29,2227.07 1032.31,2224.31 C1030.58,2219.52 1028.35,2215.85 1025.47,2213.53 C1018.79,2208.70 1011.78,2201.66 1007.60,2197.48 C981.77,2171.57 929.29,2119.85 928.91,2119.75 C927.23,2119.35 924.56,2120.40 921.83,2122.31 C919.90,2123.76 919.14,2124.68 918.93,2125.95 C918.76,2127.14 919.64,2133.91 919.81,2135.16 C924.98,2134.34 938.12,2132.27 946.10,2131.02 C955.07,2129.73 972.83,2129.05 981.50,2129.67 C985.83,2129.99 994.41,2131.11 998.65,2131.90 C1003.00,2132.73 1022.80,2137.35 1028.66,2137.50 C1032.12,2137.55 1039.53,2136.30 1042.25,2134.19 C1044.54,2132.35 1047.52,2125.10 1048.65,2122.33 C1048.90,2121.72 1049.16,2121.10 1049.41,2120.49 C1042.54,2130.07 1022.80,2157.60 1013.83,2167.89 C1008.66,2173.80 994.29,2188.27 988.40,2193.50 C978.37,2202.38 941.19,2229.94 940.78,2230.48 C939.86,2231.78 940.24,2235.79 940.40,2238.38 C942.92,2238.85 950.89,2238.28 952.22,2237.52 C954.02,2236.44 957.10,2230.19 957.73,2228.94 C960.74,2222.84 967.60,2208.80 971.44,2200.87 C976.13,2190.95 982.43,2175.39 984.93,2167.59 C987.60,2159.16 991.13,2142.10 991.60,2133.45 C991.99,2125.87 990.26,2110.25 989.48,2103.32 C988.31,2093.43 986.14,2078.97 985.32,2075.25 C984.15,2070.09 978.00,2052.45 976.15,2048.59 C974.71,2045.62 971.66,2040.65 969.05,2036.75 C967.27,2034.12 963.70,2029.92 961.12,2028.12 C959.38,2026.94 952.00,2023.01 949.87,2022.27 C947.64,2021.50 941.40,2020.51 937.78,2019.11 C934.42,2018.03 926.71,2017.82 924.04,2017.86 C916.31,2018.00 898.93,2021.13 897.77,2021.32 C893.40,2022.08 887.85,2025.27 886.72,2025.89 C881.41,2028.88 869.52,2035.66 862.95,2039.44 C851.68,2046.00 840.34,2053.47 833.64,2059.02 C826.96,2064.60 814.50,2077.70 810.40,2083.50 C806.00,2089.79 798.88,2102.56 795.86,2109.59 C792.85,2116.63 788.03,2131.88 786.35,2139.66 C784.69,2147.46 782.93,2163.03 782.84,2170.81 C782.78,2178.54 784.13,2193.22 785.64,2200.77 C787.06,2207.78 791.23,2221.77 793.98,2228.76 C796.74,2235.72 804.04,2250.55 807.79,2256.42 C812.06,2263.05 822.40,2275.28 828.48,2280.87 C834.59,2286.46 848.00,2296.16 855.22,2300.30 C861.77,2304.03 876.08,2310.81 883.84,2313.87 C890.60,2316.52 906.73,2321.76 917.33,2324.69 C934.61,2329.00 968.60,2335.52 982.32,2337.19 C990.10,2337.93 1004.23,2338.63 1012.83,2337.31 C1018.39,2336.43 1027.54,2333.45 1031.07,2331.38 C1033.50,2329.91 1049.91,2314.95 1050.55,2314.38 C1039.18,2313.02 997.15,2308.07 992.58,2307.35 C983.24,2305.85 966.22,2301.46 958.54,2298.58 C950.79,2295.64 936.74,2288.21 930.38,2283.52 C924.04,2278.81 913.28,2267.76 908.91,2261.46 C904.82,2255.52 897.56,2241.52 894.90,2234.46 C892.26,2227.41 888.58,2212.38 887.63,2204.40 C886.66,2196.08 886.69,2178.75 887.70,2169.73 C888.29,2164.47 893.96,2130.86 894.98,2124.97 C895.37,2122.85 896.19,2119.11 898.33,2114.14 C900.53,2109.13 904.88,2101.88 910.80,2093.52 C914.12,2088.89 917.83,2083.58 919.68,2081.72 C920.84,2080.58 928.92,2074.78 930.80,2073.58 C933.88,2071.65 938.33,2070.48 944.16,2069.17 C950.83,2067.65 971.78,2063.90 973.62,2063.82 C975.19,2063.76 999.23,2063.85 1001.74,2064.20 C1007.35,2064.99 1018.78,2065.01 1027.91,2065.29 C1041.08,2065.71 1055.29,2066.69 1061.54,2068.16 C1065.00,2068.99 1070.24,2071.92 1072.02,2072.91 C1070.45,2067.90 1068.52,2063.61 1065.79,2059.40 C1062.85,2054.95 1051.74,2039.50 1049.28,2037.50 C1048.95,2037.24 1040.11,2030.51 1037.25,2028.78 C1031.14,2025.12 1015.69,2020.45 1008.99,2017.44 C999.73,2013.84 966.64,2007.47 965.79,2007.20 C962.40,2006.13 956.15,2003.28 952.05,2001.02 C950.39,2000.07 947.78,1997.79 947.15,1996.43 C946.74,1995.47 946.74,1982.48 946.97,1981.06 C947.54,1977.75 951.48,1972.00 953.79,1969.57 C955.07,1968.27 957.49,1966.96 959.35,1966.56 C960.45,1966.35 964.97,1966.32 966.60,1966.44 C968.66,1966.63 971.96,1968.10 972.75,1969.35 C973.52,1970.68 972.65,1973.40 971.23,1974.69 C970.67,1975.18 966.80,1978.15 965.92,1978.84 C964.31,1980.04 962.75,1980.63 960.61,1980.83 C957.94,1981.04 948.91,1980.88 946.34,1979.98 C944.18,1979.19 941.95,1977.60 939.98,1975.58 C938.45,1973.97 937.91,1973.11 937.62,1972.08 C937.61,1972.04 937.68,1972.02 937.67,1971.99 C937.67,1971.88 937.60,1971.45 937.46,1970.72 C937.46,1970.72 937.16,1964.88 937.16,1964.88 C937.08,1962.36 936.99,1955.98 937.99,1951.91 C939.45,1946.22 946.98,1932.00 951.96,1924.83 C958.50,1915.47 996.16,1869.34 997.31,1867.55 C999.16,1864.62 1001.34,1858.38 1001.79,1854.14 C1002.05,1851.60 1002.14,1842.61 1001.25,1840.72 C1000.91,1840.05 985.64,1830.31 979.09,1826.07 C969.23,1819.41 964.92,1815.47 963.76,1813.10 C962.35,1810.05 962.17,1802.43 962.62,1798.60 C962.94,1796.04 966.31,1781.45 966.61,1779.75 C966.87,1778.29 968.12,1777.29 969.07,1776.61 C969.27,1776.38 972.06,1767.52 972.64,1764.04 C973.75,1757.26 973.32,1739.41 972.48,1734.66 C971.64,1730.12 968.98,1724.97 967.55,1723.06 C964.93,1719.64 947.89,1704.24 944.45,1702.30 C941.04,1700.45 934.34,1699.27 930.45,1699.76 C922.98,1700.84 901.66,1703.87 900.67,1704.03 C895.62,1704.92 890.61,1706.38 887.74,1708.18 C883.83,1710.71 873.68,1721.06 867.70,1727.66 C863.81,1732.05 838.54,1763.23 831.54,1772.56 C821.06,1787.12 802.65,1816.29 794.15,1830.73 C778.55,1859.18 753.95,1904.52 750.22,1913.12 C747.00,1920.61 738.26,1950.75 734.02,1966.46 C732.01,1974.55 727.96,1991.12 725.93,1999.60 C724.06,2007.12 719.95,2022.41 717.46,2026.83 C715.76,2029.77 712.72,2033.69 709.78,2036.34 C708.23,2037.70 705.70,2038.90 703.40,2039.36 C700.25,2039.94 691.96,2039.21 688.54,2038.28 C684.24,2037.06 678.99,2034.69 675.63,2032.57 C672.12,2030.30 667.88,2026.11 665.45,2022.42 C663.38,2019.23 660.71,2013.99 659.45,2010.84 C657.43,2005.60 650.27,1965.25 647.53,1949.38 C645.13,1936.57 642.79,1926.47 640.90,1920.19 C639.53,1915.69 633.42,1899.08 631.05,1894.36 C629.15,1890.64 625.59,1886.21 624.22,1885.91 C622.90,1885.66 620.97,1886.15 619.43,1887.02 C615.85,1889.01 611.36,1893.01 608.67,1896.40 C603.59,1902.84 594.21,1916.56 590.88,1923.09 C587.40,1929.96 583.07,1943.61 581.35,1951.20 C579.93,1957.47 578.25,1969.99 577.91,1977.73 C577.54,1989.92 577.38,2026.99 577.31,2043.08 C577.22,2047.44 576.57,2055.06 575.68,2057.67 C573.98,2062.43 565.57,2081.29 563.59,2085.03 C561.30,2089.32 557.33,2095.24 554.38,2098.53 C551.89,2101.27 545.63,2106.60 543.89,2107.60 C542.18,2108.54 539.38,2109.46 537.89,2109.52 C535.47,2109.57 530.27,2108.57 524.24,2107.01 C519.37,2105.70 512.31,2102.94 509.11,2100.85 C506.55,2099.14 499.33,2092.76 499.17,2092.59 C497.28,2090.60 496.06,2088.24 495.76,2085.94 C495.67,2085.23 494.69,2066.49 494.26,2058.30 C493.59,2049.89 491.88,2034.33 490.89,2027.05 C486.67,2000.24 484.82,1985.14 483.40,1965.97 C482.51,1949.78 481.43,1916.50 481.34,1901.72 C481.57,1887.26 482.22,1860.81 483.68,1840.31 C485.48,1821.43 488.77,1794.13 490.60,1779.88 C492.87,1764.11 497.78,1731.86 500.40,1715.38 C503.33,1698.52 509.30,1665.38 512.34,1649.10 C515.65,1632.38 522.34,1598.98 525.72,1582.30 C528.47,1567.48 533.43,1539.36 536.02,1522.04 C537.30,1511.85 539.08,1493.04 539.27,1486.57 C539.38,1479.81 539.48,1466.96 539.46,1460.89 C539.17,1445.03 535.60,1419.60 535.55,1419.35 C535.00,1416.61 528.59,1403.29 526.61,1399.53 C525.54,1397.52 523.18,1394.78 521.56,1393.81 C519.75,1392.78 515.07,1393.32 511.34,1394.99 C500.48,1399.81 496.61,1400.91 495.58,1401.06 C495.58,1401.06 491.47,1402.65 491.47,1402.65 C488.42,1403.84 473.88,1410.24 467.19,1411.66 C461.69,1412.80 440.33,1413.89 435.56,1413.88 C427.19,1413.85 411.28,1412.15 403.42,1410.32 C400.98,1409.74 381.43,1404.65 373.84,1402.64 C366.90,1400.87 350.44,1397.30 345.27,1396.90 C338.36,1396.40 320.57,1397.82 315.79,1398.51 C315.76,1398.52 285.93,1404.94 285.14,1405.12 C280.77,1406.14 273.42,1408.37 270.29,1409.96 C266.61,1411.83 261.62,1413.39 257.42,1413.97 C253.43,1414.49 247.00,1414.56 244.89,1413.81 C241.65,1412.62 221.55,1401.60 218.15,1400.18 C206.01,1395.12 182.84,1380.34 181.77,1379.81 C178.77,1378.38 171.95,1376.02 167.98,1374.99 C164.05,1374.00 158.04,1373.24 152.15,1372.83 C148.90,1372.61 142.58,1372.19 140.72,1373.05 C139.03,1373.86 130.61,1380.90 130.48,1381.10 C129.62,1382.44 129.09,1389.89 129.01,1393.08 C128.99,1394.98 129.38,1398.06 129.90,1399.60 C130.48,1401.25 136.57,1409.42 137.81,1410.15 C139.49,1411.11 146.07,1412.89 149.34,1413.70 C152.78,1414.53 160.24,1415.28 161.56,1414.77 C164.22,1413.67 166.76,1408.26 168.25,1403.95 C170.61,1396.87 172.35,1383.10 173.23,1371.76 C173.75,1362.93 174.67,1347.72 175.07,1341.33 C176.72,1327.52 178.22,1304.41 178.75,1296.22 C178.95,1293.21 181.41,1288.47 182.65,1286.71 C183.64,1285.33 188.67,1281.98 192.01,1280.70 C195.63,1279.34 201.93,1277.52 205.01,1277.04 C208.19,1276.57 214.51,1276.56 218.12,1276.92 C224.31,1277.58 238.68,1282.82 246.56,1286.59 C250.71,1288.59 255.88,1291.83 258.43,1294.22 C260.49,1296.17 264.32,1300.48 264.93,1301.88 C266.10,1304.61 270.84,1325.82 270.54,1330.43 C270.46,1331.41 269.58,1335.04 269.43,1335.31 C268.48,1336.87 266.85,1338.08 264.63,1338.92 C264.62,1338.92 259.33,1341.03 258.32,1341.27 C256.61,1341.65 253.97,1341.58 253.14,1341.05 C252.15,1340.37 248.76,1334.73 248.21,1331.38 C247.89,1329.22 248.40,1321.28 250.23,1315.87 C251.12,1313.28 254.85,1305.22 257.13,1300.94 C258.59,1298.23 263.79,1289.63 266.57,1287.10 C266.75,1286.93 274.24,1282.74 275.87,1282.50 C278.60,1282.14 287.43,1282.25 290.84,1283.16 C294.16,1284.10 299.66,1286.93 302.48,1289.07 C307.56,1293.29 319.19,1301.91 322.86,1305.35 C325.78,1308.09 353.07,1336.10 360.88,1343.77 C362.79,1345.83 366.17,1353.50 366.69,1356.28 C366.83,1357.13 366.93,1360.91 366.57,1361.57 C365.62,1363.19 359.58,1369.02 357.50,1370.78 C356.06,1371.97 352.94,1373.18 350.73,1373.40 C349.55,1373.49 344.80,1372.47 343.96,1372.03 C342.71,1371.31 342.08,1369.87 342.11,1368.29 C342.18,1364.41 343.54,1359.20 345.33,1355.50 C347.01,1352.09 350.96,1345.15 352.99,1342.27 C355.40,1338.91 360.76,1333.28 363.89,1331.01 C365.72,1329.70 386.98,1317.49 389.45,1316.36 C392.67,1314.91 398.45,1313.44 403.43,1312.65 C406.27,1312.22 414.67,1311.64 416.36,1311.15 C419.99,1310.10 432.57,1310.77 441.53,1312.42 C452.11,1314.48 463.44,1317.45 468.60,1319.87 C479.62,1325.18 498.99,1347.36 499.65,1347.97 C503.16,1351.19 508.94,1354.87 512.31,1356.24 C514.99,1357.30 521.72,1359.14 525.26,1359.60 C529.41,1360.11 535.90,1359.20 539.17,1357.37 C540.90,1356.37 548.23,1350.90 550.58,1349.68 C551.97,1348.96 557.85,1345.40 561.94,1343.60 C565.79,1341.92 573.42,1338.60 577.21,1336.95 C580.69,1335.40 597.15,1326.64 601.39,1325.19 C605.10,1323.94 613.21,1322.31 615.54,1322.12 C618.23,1321.93 622.95,1323.29 625.91,1324.25 C634.42,1326.97 650.65,1331.18 653.05,1331.89 C655.50,1332.63 662.84,1335.32 664.93,1335.87 C666.53,1336.29 672.25,1337.08 677.05,1338.55 C681.41,1339.89 714.56,1351.62 721.32,1354.00 C724.17,1355.01 728.14,1354.99 730.70,1354.95 C739.17,1354.96 751.80,1354.95 753.36,1354.43 C753.56,1354.36 763.02,1349.98 765.93,1348.85 C772.06,1346.49 787.05,1342.33 789.29,1341.43 C791.73,1340.44 794.35,1338.64 795.16,1338.24 C798.37,1336.68 810.85,1337.10 812.11,1337.15 C812.11,1337.15 808.95,1335.78 808.95,1335.78 C808.95,1335.78 811.07,1335.65 811.07,1335.65 C812.96,1336.49 815.47,1338.37 816.38,1339.97 C816.97,1341.03 816.96,1345.56 816.93,1346.80 C816.78,1349.06 816.27,1350.31 814.99,1351.11 C813.20,1352.14 810.88,1352.85 808.72,1353.02 C807.91,1353.07 798.61,1353.50 796.80,1352.76 C794.48,1351.72 792.53,1348.03 790.78,1342.76 C787.94,1333.60 783.66,1322.74 779.57,1313.71 C776.88,1308.45 773.50,1301.65 768.69,1289.94 C765.31,1281.52 758.41,1263.97 757.50,1259.85 C756.59,1256.85 745.88,1234.35 744.04,1230.98 C741.69,1226.68 731.08,1215.45 727.71,1212.58 C724.87,1210.20 720.41,1207.99 717.43,1207.17 C713.59,1206.16 707.83,1205.60 703.31,1205.79 C699.45,1205.98 693.06,1207.74 689.31,1209.17 C686.02,1210.46 680.81,1213.08 677.18,1216.45 C673.38,1220.03 661.67,1235.30 659.00,1240.66 C657.67,1243.38 652.02,1263.73 651.66,1268.06 C651.34,1272.19 652.10,1284.76 652.68,1288.83 C652.93,1290.26 654.53,1292.45 655.96,1293.19 C656.24,1293.32 661.69,1294.01 662.15,1293.81 C663.56,1293.12 670.02,1282.55 670.91,1280.89 C672.91,1277.11 674.31,1270.56 674.13,1267.11 C673.92,1263.93 672.15,1257.69 671.07,1255.48 C669.62,1252.58 665.20,1247.08 662.08,1243.93 C659.13,1240.98 653.11,1235.71 649.91,1233.37 C646.57,1230.97 640.09,1227.76 635.80,1226.60 C630.88,1225.34 626.28,1224.56 623.24,1224.46 C623.24,1224.46 624.81,1224.15 624.81,1224.15 C625.93,1224.00 627.82,1223.92 628.90,1224.13 C629.98,1224.34 632.63,1225.30 634.36,1225.99 C630.02,1225.50 625.74,1224.79 622.32,1223.57 C613.38,1220.35 610.63,1220.27 609.77,1220.32 C606.34,1220.66 598.80,1221.46 595.66,1222.03 C592.39,1222.64 583.75,1225.86 582.76,1225.77 C582.34,1225.50 584.62,1225.01 584.18,1225.24 C584.03,1225.32 582.91,1225.82 580.83,1226.73 C580.83,1226.73 574.19,1229.38 574.19,1229.38 C574.19,1229.38 572.60,1230.16 572.60,1230.16 C572.60,1230.16 571.37,1230.72 571.37,1230.72 C561.83,1235.35 550.68,1241.42 546.64,1244.81 C544.27,1246.84 539.18,1252.15 536.65,1255.20 C534.04,1258.38 530.37,1263.85 528.97,1267.07 C527.62,1270.23 525.91,1275.70 525.93,1278.41 C526.00,1282.76 528.80,1294.02 530.09,1296.00 C530.93,1297.22 532.94,1298.91 534.54,1299.83 C535.98,1300.60 538.25,1300.87 540.00,1300.49 C542.80,1299.80 546.77,1296.62 548.39,1294.00 C551.85,1288.24 556.90,1275.02 559.24,1267.81 C561.51,1260.63 563.69,1248.28 563.96,1241.10 C564.20,1231.14 564.23,1216.34 563.21,1210.46 C562.63,1207.17 560.53,1198.39 559.53,1196.66 C559.05,1195.87 544.99,1180.82 541.16,1177.88 C538.01,1175.52 531.07,1172.16 526.69,1170.98 C521.11,1169.58 505.73,1165.21 502.15,1165.01 C498.11,1164.83 491.77,1165.86 487.64,1167.26 C483.87,1168.57 476.30,1171.74 472.63,1173.31 C468.43,1175.16 461.87,1179.28 460.37,1180.24 C458.90,1181.19 453.30,1184.77 450.27,1187.60 C442.12,1195.37 436.10,1202.78 434.22,1206.61 C430.37,1214.56 426.51,1241.05 425.69,1247.82 C425.42,1249.44 424.38,1250.78 423.20,1250.99 C422.43,1251.11 420.47,1250.41 418.18,1249.45 C417.93,1248.23 418.26,1246.02 419.13,1244.33 C419.73,1243.18 432.70,1228.86 448.24,1213.24 C457.02,1204.32 464.22,1198.10 469.65,1194.59 C470.69,1193.95 474.14,1191.99 474.96,1191.86 C476.77,1191.66 479.71,1192.57 480.26,1193.85 C480.86,1195.32 480.92,1196.51 480.45,1197.43 C479.52,1199.14 474.38,1198.71 470.42,1198.66 C466.45,1198.61 446.73,1199.11 438.46,1199.38 C433.36,1199.65 427.67,1200.17 424.63,1200.97 C421.89,1201.67 417.38,1201.57 413.60,1200.31 C411.27,1199.49 409.81,1198.19 409.60,1196.78 C409.50,1195.60 410.48,1193.87 411.55,1193.54 C412.17,1193.37 416.41,1193.81 417.04,1194.00 C417.98,1194.31 418.99,1195.55 420.14,1197.49 C425.60,1206.87 430.19,1213.19 436.55,1220.74 C442.36,1227.48 450.95,1234.36 451.88,1235.23 C454.38,1237.62 457.45,1244.24 458.03,1247.60 C458.24,1249.02 458.18,1251.86 457.78,1252.43 C457.05,1253.43 455.56,1253.71 454.05,1253.37 C454.07,1241.34 455.29,1231.88 456.21,1225.34 C456.31,1224.45 457.12,1175.65 457.20,1166.24 C456.99,1148.56 456.19,1124.44 455.97,1118.46 C455.97,1118.46 455.22,1113.06 455.22,1113.06 C455.22,1113.06 455.79,1090.47 455.79,1090.47 C455.79,1090.47 455.73,1087.69 455.73,1087.69 C449.31,1088.09 433.96,1089.12 426.61,1090.28 C418.70,1091.54 403.96,1095.47 398.85,1098.22 C394.35,1100.67 380.76,1110.12 376.15,1114.37 C373.44,1116.88 356.99,1134.46 354.37,1137.88 C351.40,1141.80 344.95,1153.79 341.25,1161.93 C337.73,1169.82 335.27,1176.87 333.16,1183.59 C333.16,1183.59 332.57,1186.18 332.57,1186.18 C332.57,1186.18 331.85,1189.36 331.85,1189.36 C331.85,1189.36 332.45,1197.03 332.45,1197.03 C332.43,1198.80 332.39,1202.67 332.36,1204.79 C332.34,1206.29 332.31,1209.08 332.28,1210.36 C332.26,1216.57 334.00,1232.84 335.21,1238.66 C336.64,1245.48 341.72,1260.01 345.16,1266.69 C348.58,1273.30 357.26,1287.12 361.51,1292.69 C366.01,1298.53 375.68,1308.25 384.00,1315.80 C389.75,1320.88 400.56,1328.48 406.64,1331.14 C412.02,1333.47 428.04,1338.72 433.84,1340.07 C440.57,1341.62 455.04,1343.94 461.46,1343.59 C467.63,1343.22 481.00,1340.71 489.10,1337.51 C490.94,1336.77 495.01,1335.11 495.23,1334.99 C495.44,1334.87 495.58,1334.71 495.65,1334.50 C495.65,1334.50 495.65,1334.16 495.65,1334.16 C494.85,1335.26 494.42,1335.85 494.36,1335.92 C493.99,1336.40 493.63,1336.74 493.27,1336.95 C492.96,1337.12 468.07,1348.44 466.37,1349.51 C463.86,1351.08 449.19,1355.29 442.95,1356.15 C436.84,1356.97 419.17,1357.18 412.99,1356.29 C405.56,1355.19 389.42,1350.59 381.22,1347.59 C373.53,1344.65 356.35,1337.94 351.90,1335.98 C345.87,1333.31 334.62,1326.84 328.62,1322.82 C325.57,1320.71 318.48,1315.65 317.86,1315.12 C314.65,1312.33 304.52,1297.53 301.52,1292.15 C299.88,1289.20 290.53,1270.12 288.22,1264.00 C283.62,1251.69 281.10,1228.08 280.58,1222.94 C280.58,1222.94 279.98,1213.26 279.98,1213.26 C279.98,1213.26 278.94,1201.09 278.94,1201.09 C278.94,1201.09 278.72,1197.10 278.72,1197.10 C278.72,1197.10 278.75,1192.84 278.75,1192.84 C278.75,1192.84 278.83,1187.66 278.83,1187.66 C278.83,1187.66 278.90,1184.34 278.90,1184.34 C278.90,1184.34 279.20,1179.10 279.20,1179.10 C279.20,1179.10 279.73,1171.83 279.73,1171.83 C280.47,1162.29 282.06,1151.90 284.93,1143.44 C287.77,1135.20 294.52,1124.63 297.56,1118.59 C299.41,1114.98 303.23,1109.94 306.43,1106.83 C306.93,1106.35 313.32,1100.35 314.70,1098.35 C317.37,1094.46 330.02,1081.36 335.95,1077.11 C341.11,1073.46 351.72,1067.88 359.53,1064.67 C366.32,1061.94 384.40,1055.19 388.72,1053.99 C394.25,1052.47 405.05,1051.51 413.52,1051.15 C423.03,1050.97 436.55,1051.18 444.38,1051.32 C450.99,1051.46 467.24,1051.83 472.51,1052.99 C475.59,1053.68 484.08,1055.90 487.12,1057.54 C490.30,1059.26 506.23,1066.70 512.93,1070.09 C515.01,1071.17 522.44,1075.75 523.27,1076.30 C526.59,1078.51 531.62,1083.29 533.55,1086.40 C535.09,1088.91 546.85,1110.77 549.83,1114.38 C550.42,1115.11 552.60,1117.37 553.10,1118.51 C554.25,1121.22 559.32,1140.55 560.74,1146.05 C559.83,1146.80 559.35,1147.33 559.33,1147.62 C559.26,1148.33 560.15,1148.79 560.42,1149.44 C560.59,1149.89 559.86,1152.90 559.75,1153.50 C559.17,1156.54 558.69,1157.33 557.56,1157.32 C552.98,1146.45 548.09,1135.74 544.17,1131.05 C540.19,1126.36 530.69,1118.44 522.82,1113.29 C516.58,1109.44 505.11,1102.44 498.90,1099.24 C498.90,1099.24 497.12,1096.47 497.12,1096.47 C496.15,1095.22 493.05,1091.19 492.37,1090.25 C491.00,1088.31 490.85,1086.82 492.02,1086.82 C492.93,1086.85 495.64,1087.15 498.28,1086.31 C498.52,1086.23 498.65,1086.19 498.67,1086.19 C498.97,1086.09 502.62,1085.02 503.95,1084.63 C517.06,1079.71 546.04,1069.22 560.93,1064.81 C567.80,1062.82 585.00,1057.68 590.16,1055.87 C601.80,1051.63 608.69,1050.11 608.96,1049.85 C609.74,1049.06 610.60,1045.75 610.78,1043.40 C611.08,1038.75 610.00,1031.68 608.45,1028.42 C607.28,1026.01 600.41,1016.82 599.99,1016.31 C597.00,1012.73 582.30,1001.91 577.87,999.29 C573.24,996.57 555.40,987.94 547.61,984.50 C538.51,980.67 527.94,977.26 519.57,976.05 C514.53,975.37 497.29,974.59 490.04,974.45 C480.37,974.26 451.86,977.42 428.29,977.92 C411.96,977.80 381.15,977.12 366.66,976.56 C330.54,976.16 295.86,978.17 289.59,978.00 C285.77,977.87 278.94,976.63 276.24,975.44 C274.59,974.71 271.72,973.09 270.05,972.03" fill="none" stroke="rgb(0, 0, 0)" stroke-width="4.00" stroke-opacity="1.00" stroke-linejoin="round"/>
<path d="M270.05,972.03 C267.23,969.74 246.59,960.35 243.48,958.84 C233.78,954.06 228.71,949.96 219.93,941.96 C215.53,938.00 205.94,924.98 200.91,918.06 C197.84,913.66 193.87,906.29 186.52,896.65 C178.03,885.84 171.31,878.48 169.23,875.56 C166.01,870.93 162.80,866.95 160.28,864.60 C155.23,859.96 144.34,853.05 137.27,849.55 C127.38,844.73 117.74,839.32 108.60,833.61 C101.54,828.95 88.20,819.75 86.75,817.98 C84.86,815.65 80.44,812.01 78.18,808.16 C76.49,805.24 68.84,785.18 67.10,781.19 C65.96,778.47 65.14,773.46 65.20,769.62 C65.33,764.18 66.89,752.64 67.14,743.22 C67.36,730.85 67.15,726.99 67.04,725.85 C67.10,725.23 67.20,724.80 67.34,724.56 C67.53,724.24 71.03,721.03 71.48,720.65 C73.92,718.63 82.36,716.70 83.74,716.24 C86.51,715.33 93.81,715.21 95.48,715.19 C107.37,715.12 120.99,715.51 127.39,716.36 C132.90,717.11 146.33,721.36 152.64,723.60 C166.16,728.81 196.52,741.33 205.75,746.12 C211.54,749.10 215.02,750.48 219.46,751.26 C220.35,751.41 226.81,752.94 233.11,753.25 C235.80,753.38 256.17,753.32 264.61,753.22 C269.63,753.11 284.85,750.84 288.47,749.82 C301.88,745.92 331.99,734.67 346.53,729.04 C356.76,725.26 367.58,722.03 373.44,719.43 C376.45,718.09 393.98,709.33 401.64,705.43 C411.96,700.20 416.64,698.05 424.57,693.18 C439.43,683.97 459.47,671.55 464.64,668.33 C456.14,681.89 440.02,708.35 439.91,708.52 C438.78,710.36 437.93,713.52 438.29,715.32 C438.48,716.16 441.37,718.80 442.02,719.07 C444.35,719.95 452.98,720.27 457.11,720.41 C461.17,720.50 469.98,720.65 470.97,720.43 C471.01,720.42 500.85,709.57 502.03,709.14 C502.03,709.14 470.33,695.16 470.33,695.16 C474.17,688.37 485.17,668.95 488.59,665.83 C489.70,664.86 491.68,663.95 492.56,664.01 C493.42,664.12 494.92,665.38 495.55,666.52 C497.43,670.17 499.34,690.88 500.01,698.12 C500.65,695.94 503.21,687.18 503.21,687.16 C504.60,682.93 509.16,675.68 513.27,671.17 C520.32,663.57 545.70,645.87 550.76,641.09 C553.44,638.52 558.09,632.89 559.52,629.95 C561.04,626.73 561.35,618.33 561.42,617.95 C562.06,614.60 565.35,607.30 567.41,603.87 C572.80,595.01 598.85,564.02 599.21,563.00 C601.28,556.84 599.22,527.25 599.04,507.35 C592.63,504.94 578.03,499.55 573.61,498.88 C568.20,498.10 549.97,497.84 544.63,498.82 C542.06,499.30 535.52,501.80 532.43,503.45 C528.30,505.71 524.34,508.82 522.17,511.25 C522.17,511.25 520.11,514.41 520.11,514.41 C520.09,518.08 521.56,522.94 521.82,524.08 C522.08,525.16 526.16,553.44 527.71,560.37 C528.20,562.61 528.30,565.30 527.84,567.75 C526.59,574.19 518.59,590.72 512.80,601.27 C497.03,628.17 491.51,639.64 490.62,643.38 C490.30,644.92 491.27,646.31 492.83,646.34 C493.99,646.32 502.20,640.55 505.66,637.16 C509.23,633.60 515.54,625.11 518.58,619.73 C522.10,613.43 528.49,596.70 530.94,587.35 C533.08,578.75 538.04,558.32 538.12,558.03 C538.76,555.51 537.66,551.05 537.38,549.17 C535.30,534.38 533.63,524.55 531.22,517.08 C530.51,514.90 527.70,507.35 526.84,505.02 C523.30,506.58 516.90,513.96 509.87,523.00 C504.71,529.77 498.30,537.87 496.39,538.64 C495.97,538.80 484.81,541.01 481.53,540.87 C478.86,540.74 470.49,538.36 468.22,537.54 C466.05,536.71 463.66,534.11 459.32,529.66 C449.09,519.23 448.34,518.59 439.67,513.17 C433.19,509.02 421.37,497.88 416.06,491.98 C413.34,488.94 408.48,482.90 406.92,480.62 C404.05,476.39 401.31,470.74 399.77,466.31 C397.44,459.53 391.89,439.41 391.42,437.34 C390.04,431.17 388.82,417.39 389.12,412.49 C389.52,406.48 393.96,390.39 396.62,384.34 C398.17,380.85 401.71,374.81 403.97,371.82 C406.21,368.90 412.00,362.68 414.74,359.77 C417.38,356.93 419.03,354.52 420.39,351.85 C419.94,355.62 417.20,365.31 417.06,365.88 C415.60,371.61 415.69,385.72 415.85,386.52 C416.38,389.01 417.57,391.24 419.05,392.47 C421.51,394.40 427.14,395.38 432.57,395.44 C437.53,395.44 444.27,394.11 448.50,392.03 C451.88,390.34 454.80,388.66 455.76,388.08 C454.96,390.60 450.39,395.95 447.70,399.13 C443.53,404.02 440.28,408.00 439.16,409.76 C436.73,413.70 433.51,426.12 432.56,433.20 C431.67,439.98 431.58,458.19 433.27,463.70 C434.26,466.84 438.29,472.65 440.58,474.36 C442.13,475.49 448.43,478.75 452.02,480.38 C457.15,482.68 462.68,484.56 466.34,484.89 C473.92,485.50 482.81,482.86 485.32,481.60 C486.75,480.83 488.28,476.91 490.68,470.95 C491.06,470.03 491.43,469.11 491.80,468.19 C492.23,470.78 487.41,486.45 487.42,486.57 C487.46,486.77 495.78,486.59 496.60,486.60 C498.89,486.61 500.52,486.11 501.51,484.85 C503.77,481.88 507.20,474.26 508.98,472.77 C510.85,471.27 515.75,470.84 516.90,470.73 C517.38,471.40 517.08,472.27 515.57,474.08 C515.00,474.76 514.42,475.45 513.85,476.14 C512.98,477.09 512.61,477.71 512.74,477.98 C512.94,478.40 517.33,479.57 518.92,479.99 C517.08,479.90 516.09,479.86 515.97,479.86 C515.16,479.86 526.72,480.50 529.53,479.65 C530.57,479.30 532.97,476.82 533.82,475.43 C534.29,474.60 534.17,472.05 533.74,471.33 C533.23,470.53 531.18,468.82 529.70,467.73 C533.71,466.68 537.84,465.49 541.48,463.44 C543.08,462.49 545.79,460.02 545.87,458.94 C545.90,458.26 543.63,454.54 542.58,452.65 C544.10,450.55 544.78,448.81 545.00,446.12 C545.08,445.10 545.17,444.08 545.25,443.06 C545.25,443.06 542.24,438.37 542.24,438.37 C537.66,436.74 533.47,435.58 529.76,435.34 C527.09,435.19 519.85,435.47 515.86,436.78 C514.95,437.10 510.78,438.85 510.50,439.05 C510.06,439.38 506.38,443.90 505.41,445.09 C503.69,447.21 502.30,447.94 499.89,448.29 C499.10,446.34 495.24,441.45 492.01,438.64 C490.46,437.32 487.40,435.56 485.94,435.15 C485.61,435.06 471.34,431.70 470.16,431.66 C469.53,429.14 469.15,426.42 469.40,425.03 C469.77,423.17 474.06,419.15 479.12,415.60 C482.43,413.25 486.49,409.37 487.93,407.40 C490.40,403.93 492.56,398.04 492.98,394.41 C493.09,393.16 492.63,391.44 491.89,390.54 C489.30,387.59 477.29,380.93 471.23,375.80 C468.62,373.57 463.58,368.38 461.32,365.08 C459.34,362.14 453.57,350.30 449.47,340.88 C445.24,330.82 440.77,318.72 439.55,312.72 C438.84,309.11 438.18,301.37 438.14,296.99 C438.11,292.15 438.74,286.46 439.98,283.25 C441.46,279.61 443.92,275.52 447.08,272.33 C451.92,267.56 456.03,264.29 458.71,262.91 C461.91,261.32 467.92,258.80 470.46,257.96 C478.05,255.51 497.59,249.23 504.07,248.49 C508.28,248.03 515.96,248.58 519.09,249.54 C522.97,250.78 529.33,255.12 531.93,258.28 C534.50,261.49 543.37,280.10 546.12,285.57 C549.29,291.85 556.27,302.41 557.60,308.00 C558.30,311.06 558.66,319.62 558.62,323.63 C558.54,328.51 557.81,335.16 556.90,338.10 C555.32,343.05 546.86,357.87 543.00,361.87 C540.84,364.07 533.54,369.73 532.90,370.00 C531.30,370.53 529.13,371.31 527.70,372.47 C526.13,373.80 523.61,375.86 523.47,376.44 C523.37,376.86 523.46,377.83 523.72,379.36 C525.25,379.66 527.64,379.95 528.77,379.74 C530.76,379.37 538.47,374.70 539.83,373.60 C543.02,370.97 554.10,356.99 554.32,356.50 C555.11,354.71 557.47,328.31 557.46,326.59 C557.42,323.01 551.67,304.52 550.28,301.76 C548.58,298.49 544.18,294.45 539.30,291.01 C536.27,288.83 529.57,284.29 528.14,283.53 C525.51,282.17 519.03,281.23 515.91,281.55 C512.90,281.90 508.08,283.79 505.02,285.46 C491.36,293.08 469.65,305.29 466.58,307.88 C464.49,309.73 463.46,312.49 463.28,316.55 C463.04,321.81 463.25,328.25 464.44,331.77 C465.52,334.85 469.41,340.64 472.77,344.33 C475.50,347.28 478.02,348.93 481.80,350.59 C485.04,352.00 491.42,354.72 493.71,355.22 C495.48,355.57 500.49,353.99 504.77,352.26 C516.52,347.34 538.89,334.43 546.52,329.22 C547.51,329.04 548.34,327.42 548.91,326.17 C549.43,325.48 554.39,321.78 554.96,321.09 C555.73,320.17 557.46,317.23 559.63,315.29 C563.05,314.36 570.19,314.66 571.95,313.77 C575.88,311.63 578.45,309.68 579.42,306.53 C586.78,281.30 604.01,234.25 604.73,233.10 C605.94,231.23 608.59,229.03 609.93,228.95 C610.82,228.88 611.73,229.25 612.62,229.13 C613.99,228.94 616.23,226.42 617.74,223.72 C619.86,219.76 625.34,197.73 627.32,193.80 C629.06,190.46 633.72,185.86 636.73,184.82 C639.84,183.81 647.11,184.50 651.82,186.27 C653.73,187.00 662.53,190.77 666.70,192.76 C671.42,195.06 677.22,199.19 680.06,202.79 C680.33,203.14 680.73,203.63 681.27,204.28 C680.59,211.41 678.61,231.81 677.39,236.40 C677.06,237.57 676.05,240.13 675.59,240.66 C674.64,241.62 672.86,241.57 671.77,240.26 C670.51,238.70 665.82,229.19 664.35,226.22 C664.35,226.22 655.13,227.98 655.13,227.98 C653.17,225.05 646.94,215.67 645.37,214.03 C644.03,212.68 642.02,212.31 641.11,213.03 C640.12,213.94 638.91,220.22 638.80,225.10 C638.72,230.40 639.31,238.11 640.13,242.11 C640.54,243.78 642.39,246.93 643.63,247.37 C645.30,247.91 651.75,243.58 653.23,242.65 C655.29,249.15 661.63,269.15 661.92,274.03 C662.00,275.92 661.63,279.14 661.17,280.53 C660.67,281.89 659.04,284.12 657.90,284.97 C656.72,285.79 653.62,286.82 651.75,287.01 C647.87,287.35 629.13,283.76 624.56,282.89 C624.56,282.89 623.55,275.33 623.55,275.33 C636.67,279.42 641.60,281.23 643.89,284.14 C645.19,285.86 646.38,289.64 646.66,292.38 C646.85,294.59 645.84,301.47 644.76,305.17 C642.81,311.66 626.82,345.37 620.66,360.24 C618.94,364.45 618.26,369.61 618.49,373.16 C618.64,374.79 619.19,376.53 620.01,377.87 C620.44,378.56 625.54,385.69 626.78,388.17 C628.49,391.80 630.20,394.70 632.66,398.19 C634.20,400.45 636.68,408.98 636.94,410.10 C639.32,421.03 637.78,453.12 638.26,454.11 C638.80,455.15 641.18,456.07 642.98,456.28 C646.12,456.61 653.67,457.21 657.02,457.85 C661.39,458.71 668.30,461.34 671.29,463.08 C673.00,464.10 691.11,479.20 691.63,479.73 C693.79,481.94 708.72,499.78 709.72,501.03 C711.91,503.80 714.44,507.99 717.51,513.47 C718.58,515.35 723.69,521.81 724.80,524.37 C728.78,533.71 732.11,538.94 732.43,540.56 C732.86,542.86 732.33,552.25 731.80,554.58 C731.26,556.82 708.37,594.02 702.19,605.15 C698.51,612.21 690.70,628.48 687.79,636.46 C686.09,641.18 684.36,647.66 684.08,651.25 C683.84,654.81 684.75,661.52 685.95,664.98 C687.28,668.71 691.16,675.22 693.96,678.42 C696.31,681.07 704.55,688.27 706.56,690.49 C709.06,693.27 711.86,698.32 712.22,700.68 C712.41,702.15 712.13,704.45 711.56,705.66 C710.39,707.96 704.51,712.32 700.72,713.53 C696.69,714.74 686.72,714.76 680.26,713.53 C674.72,712.43 658.52,706.58 649.75,702.51 C631.59,694.04 617.22,684.81 616.62,684.42 C615.41,683.58 614.57,682.21 614.95,681.36 C615.69,680.00 621.76,679.88 630.97,679.96 C631.95,679.97 632.93,679.98 633.91,679.99 C632.16,677.80 627.77,672.28 625.12,668.96 C621.89,664.79 618.79,658.40 618.75,655.95 C618.77,654.40 619.77,651.62 620.77,650.44 C621.84,649.20 624.97,647.26 626.64,646.28 C628.21,645.21 631.02,642.09 632.04,640.23 C633.80,636.93 635.41,630.18 635.73,627.46 C636.09,624.19 636.16,618.45 635.94,612.83 C635.87,608.90 636.79,600.74 637.75,596.68 C638.76,592.53 641.54,585.00 643.49,580.99 C647.28,573.31 654.20,563.65 663.36,551.76 C665.34,549.19 668.80,544.70 670.28,542.77 C660.66,552.07 656.25,555.75 652.75,556.87 C651.00,557.37 647.63,557.45 645.92,557.02 C642.49,556.07 638.18,552.41 633.19,547.33 C629.18,543.18 626.72,540.13 625.69,537.43 C622.68,529.30 620.30,517.50 620.29,513.49 C620.31,504.05 621.92,488.27 622.03,484.34 C622.10,481.64 621.84,473.59 621.68,469.59 C621.41,465.13 619.06,450.41 618.87,449.67 C618.62,448.67 609.45,434.43 605.45,426.83 C601.93,420.19 592.30,408.25 588.22,400.81 C585.96,396.60 582.45,390.51 580.40,388.25 C578.40,386.11 573.49,384.87 570.06,385.15 C566.84,385.46 561.40,387.03 557.81,388.53 C551.49,391.22 535.36,401.51 532.50,404.25 C530.95,405.74 529.25,407.96 528.62,409.13 C528.62,409.13 526.85,411.76 526.85,411.76 C526.85,411.76 519.17,446.15 519.17,446.15 C519.17,446.15 515.51,463.22 515.51,463.22 C515.51,463.22 515.08,464.77 515.08,464.77 C515.08,464.77 514.80,466.04 514.80,466.04 C514.80,466.04 514.38,469.85 514.38,469.85 C514.38,469.85 513.81,471.97 513.81,471.97 C513.81,471.97 513.11,473.81 513.11,473.81 C513.11,473.81 512.82,474.93 512.82,474.93 C512.82,474.93 512.26,476.06 512.26,476.06 C512.26,476.06 511.41,478.46 511.41,478.46 C511.41,478.46 508.52,481.73 508.52,481.73 C505.79,484.68 495.87,504.30 493.18,508.65 C490.26,513.32 476.80,529.46 474.90,531.20 C472.30,533.53 466.38,536.47 465.15,537.10 C459.24,540.10 445.86,546.89 438.40,550.67 C425.37,557.27 412.29,563.21 404.36,565.91 C396.45,568.57 381.38,571.54 375.01,571.50 C371.21,571.46 364.12,570.50 360.81,569.57 C357.52,568.63 351.43,565.86 348.63,564.03 C344.53,561.32 333.40,550.39 326.80,543.06 C320.75,536.05 311.07,524.16 304.90,515.78 C296.17,503.49 277.44,475.43 267.55,459.81 C258.40,444.81 239.36,411.11 237.02,406.07 C233.14,397.66 226.74,379.82 225.15,372.94 C223.77,366.87 222.82,353.72 222.99,345.97 C223.16,339.19 224.42,324.45 225.88,314.94 C228.29,301.23 235.86,265.63 238.93,253.61 C241.19,245.48 246.10,229.70 248.75,222.05 C251.54,214.57 256.60,202.02 261.79,191.94 C265.86,184.33 274.61,169.79 279.31,162.86 C284.90,154.88 294.17,143.18 299.40,137.65 C304.61,132.15 315.11,123.06 320.90,119.04 C326.32,115.30 340.73,108.76 347.88,106.77 C355.06,104.80 369.16,103.22 377.52,103.19 C385.18,103.18 400.83,104.54 409.14,105.94 C413.69,106.72 431.08,111.24 438.39,113.48 C451.92,118.00 531.87,150.01 564.44,162.84 C591.57,172.83 622.64,184.23 626.58,185.63 C635.60,192.06 658.11,208.11 671.60,217.74 C687.43,229.14 715.25,250.31 727.13,260.01 C732.56,264.64 747.71,278.38 752.55,283.40 C758.13,289.21 767.75,301.67 770.05,304.24 C774.60,309.26 786.98,319.80 794.64,325.17 C799.13,328.31 814.60,337.97 821.73,342.09 C840.46,352.47 899.13,380.53 911.17,386.29 C920.54,391.36 953.22,409.07 959.41,411.87 C967.59,415.55 984.72,421.37 993.68,423.51 C1001.90,425.46 1018.33,427.96 1026.43,428.61 C1034.54,429.24 1050.21,429.42 1059.96,428.98 C1076.68,427.86 1107.60,424.00 1119.93,421.50 C1124.17,420.60 1134.71,417.81 1139.95,415.94 C1144.91,414.13 1152.64,410.29 1156.12,407.89 C1161.28,404.19 1168.98,398.71 1171.51,396.92 C1171.51,396.92 1163.84,429.61 1163.84,429.61 C1163.84,429.61 1162.49,429.94 1162.49,429.94 C1162.49,429.94 1163.36,427.90 1163.36,427.90 C1163.36,427.90 1161.72,428.84 1161.72,428.84 C1161.72,428.84 1131.34,506.96 1131.34,506.96 C1124.87,476.62 1111.60,414.41 1104.81,382.55 C1104.64,381.77 1104.47,380.99 1104.31,380.20 C1115.69,388.63 1144.56,410.02 1162.04,422.99 C1171.13,429.95 1183.60,441.48 1186.79,445.91 C1188.35,448.10 1189.99,451.84 1190.07,453.39 C1190.12,454.91 1188.79,457.26 1187.47,458.12 C1186.14,458.96 1182.17,460.06 1179.54,460.33 C1174.20,460.84 1158.28,459.56 1147.68,457.77 C1147.21,457.69 1070.49,442.70 1067.67,442.16 C1064.25,441.46 1062.73,441.48 1061.61,442.16 C1069.52,440.67 1098.91,435.24 1102.50,434.37 C1110.26,432.47 1127.76,426.58 1141.01,421.55 C1158.71,414.39 1189.28,400.61 1201.41,395.00 C1228.17,382.04 1273.25,359.12 1289.08,350.89 C1296.96,346.50 1312.13,337.37 1319.41,332.63 C1326.50,327.78 1340.08,317.71 1346.57,312.51 C1352.86,307.19 1364.84,296.19 1370.53,290.52 C1377.12,283.58 1386.46,272.84 1391.31,266.68 C1397.19,258.97 1406.48,245.19 1410.97,237.47 C1415.44,229.74 1423.34,213.68 1426.77,205.34 C1430.18,197.00 1435.98,179.71 1438.35,170.76 C1442.32,155.72 1448.38,116.64 1451.00,99.50 C1454.99,74.06 1460.39,39.95 1460.43,39.59 C1460.59,37.80 1462.14,35.60 1462.02,37.11 C1461.99,37.49 1459.85,40.52 1458.48,42.39" fill="none" stroke="rgb(0, 0, 0)" stroke-width="4.00" stroke-opacity="1.00" stroke-linejoin="round"/>
<path d="M2420.06,1382.74 C2421.61,1382.71 2424.49,1383.55 2426.50,1384.79 C2428.22,1385.86 2444.14,1403.38 2446.56,1406.31 C2448.76,1409.01 2461.48,1433.34 2461.74,1433.22 C2461.74,1433.22 2463.26,1431.17 2463.26,1431.17" fill="none" stroke="rgb(0, 0, 0)" stroke-width="4.00" stroke-opacity="1.00" stroke-linejoin="round"/>
</g>
</svg>
